# File created by Blade
# Date/Time:  Tue Jan 27 18:02:00 2015
#---------------------------------------------------------
:version 1.10
:name HOM
:units
  mass 1.0
  length 1.000000
  angle deg
:documentation
     Acclaim Skeleton File
:root
   axis xyz
   order TX TY TZ RX RY RZ
   position 0.000000 0.000000 0.000000
   orientation 0 0 0
:bonedata
   begin
      id 1
      name Spine_dum
      direction 0.000000 1.000000 0.000000
      length 5.195262
      axis 0.0 0.0 0.0 xyz
   end
   begin
      id 2
      name LeftUpLeg_dum
      direction 1.000000 0.000000 0.000000
      length 3.351363
      axis 0.0 0.0 0.0 xyz
   end
   begin
      id 3
      name RightUpLeg_dum
      direction -1.000000 0.000000 0.000000
      length 3.351363
      axis 0.0 0.0 0.0 xyz
   end
   begin
      id 4
      name Spine
      direction 0.000000 1.000000 0.000000
      length 0.000000
      axis 0.0 0.0 0.0 xyz
      dof rx ry rz
   end
   begin
      id 5
      name Spine_dum1
      direction 0.000000 1.000000 0.000000
      length 15.653875
      axis 0.0 0.0 0.0 xyz
   end
   begin
      id 6
      name Spine_dum2
      direction 0.000000 1.000000 0.000000
      length 10.329768
      axis 0.0 0.0 0.0 xyz
   end
   begin
      id 7
      name Spine_dum3
      direction 0.000000 1.000000 0.000000
      length 10.329768
      axis 0.0 0.0 0.0 xyz
   end
   begin
      id 8
      name Head
      direction 0.000000 1.000000 0.000000
      length 4.527550
      axis 0.0 0.0 0.0 xyz
      dof rx ry rz
   end
   begin
      id 9
      name LeftShoulder
      direction 1.000000 0.000000 0.000000
      length 6.996006
      axis 0.0 0.0 -90.0 xyz
      dof rx ry rz
   end
   begin
      id 10
      name LeftArm
      direction 1.000000 0.000000 0.000000
      length 10.209302
      axis 0.0 0.0 -90.0 xyz
      dof rx ry rz
   end
   begin
      id 11
      name LeftForeArm
      direction 1.000000 0.000000 0.000000
      length 8.563163
      axis 0.0 0.0 -90.0 xyz
      dof ry rz rx
   end
   begin
      id 12
      name LeftHand
      direction 0.000000 0.000000 0.000000
      length 0.000000
      axis 0.0 0.0 -90.0 xyz
      dof rx ry rz
   end
   begin
      id 13
      name LeftHand_dum1
      direction 0.000000 0.000000 0.000000
      length 0.000000
      axis 0.0 0.0 -90.0 xyz
   end
   begin
      id 14
      name LeftHand_dum2
      direction 1.000000 0.000000 0.000000
      length 3.937000
      axis 0.0 0.0 -90.0 xyz
   end
   begin
      id 15
      name LeftHandThumb1
      direction 0.000000 0.000000 1.000000
      length 3.937000
      axis 0.0 0.0 -90.0 xyz
      dof rx rz ry
   end
   begin
      id 16
      name RightShoulder
      direction -1.000000 0.000000 0.000000
      length 6.996006
      axis 0.0 0.0 90.0 xyz
      dof rx ry rz
   end
   begin
      id 17
      name RightArm
      direction -1.000000 0.000000 0.000000
      length 10.209302
      axis 0.0 0.0 90.0 xyz
      dof rx ry rz
   end
   begin
      id 18
      name RightForeArm
      direction -1.000000 0.000000 0.000000
      length 8.563163
      axis 0.0 0.0 90.0 xyz
      dof ry rz rx
   end
   begin
      id 19
      name RightHand
      direction 0.000000 0.000000 0.000000
      length 0.000000
      axis 0.0 0.0 90.0 xyz
      dof rx ry rz
   end
   begin
      id 20
      name RightHand_dum1
      direction 0.000000 0.000000 0.000000
      length 0.000000
      axis 0.0 0.0 90.0 xyz
   end
   begin
      id 21
      name RightHand_dum2
      direction -1.000000 0.000000 0.000000
      length 3.937000
      axis 0.0 0.0 90.0 xyz
   end
   begin
      id 22
      name RightHandThumb1
      direction 0.000000 0.000000 1.000000
      length 3.937000
      axis 0.0 0.0 90.0 xyz
      dof rx rz ry
   end
   begin
      id 23
      name LeftUpLeg
      direction 0.000000 -1.000000 0.000000
      length 16.346831
      axis 0.0 0.0 0.0 xyz
      dof rx ry rz
   end
   begin
      id 24
      name LeftLeg
      direction 0.000000 -1.000000 0.000000
      length 13.959795
      axis 0.0 0.0 0.0 xyz
      dof rx ry rz
   end
   begin
      id 25
      name LeftFoot
      direction 0.000000 -0.258819 0.965926
      length 5.165550
      axis 15.0 0.0 0.0 xyz
      dof rx ry rz
   end
   begin
      id 26
      name LeftToeBase
      direction 0.000000 0.000000 1.000000
      length 2.952750
      axis 0.0 0.0 0.0 xyz
      dof rx ry rz
   end
   begin
      id 27
      name RightUpLeg
      direction 0.000000 -1.000000 0.000000
      length 16.346831
      axis 0.0 0.0 0.0 xyz
      dof rx ry rz
   end
   begin
      id 28
      name RightLeg
      direction 0.000000 -1.000000 0.000000
      length 13.959795
      axis 0.0 0.0 0.0 xyz
      dof rx ry rz
   end
   begin
      id 29
      name RightFoot
      direction 0.000000 -0.258819 0.965926
      length 5.165550
      axis 15.0 0.0 0.0 xyz
      dof rx ry rz
   end
   begin
      id 30
      name RightToeBase
      direction 0.000000 0.000000 1.000000
      length 2.952750
      axis 0.0 0.0 0.0 xyz
      dof rx ry rz
   end
:hierarchy
   begin
      root Spine_dum LeftUpLeg_dum RightUpLeg_dum
      Spine_dum Spine
      LeftUpLeg_dum LeftUpLeg
      RightUpLeg_dum RightUpLeg
      Spine Spine_dum1 Spine_dum2 Spine_dum3
      Spine_dum1 Head
      Spine_dum2 LeftShoulder
      Spine_dum3 RightShoulder
      LeftShoulder LeftArm
      LeftArm LeftForeArm
      LeftForeArm LeftHand
      LeftHand LeftHand_dum1 LeftHand_dum2
      LeftHand_dum1 LeftHandThumb1
      RightShoulder RightArm
      RightArm RightForeArm
      RightForeArm RightHand
      RightHand RightHand_dum1 RightHand_dum2
      RightHand_dum1 RightHandThumb1
      LeftUpLeg LeftLeg
      LeftLeg LeftFoot
      LeftFoot LeftToeBase
      RightUpLeg RightLeg
      RightLeg RightFoot
      RightFoot RightToeBase
   end

# File created by Blade
# Date/Time:  Tue Jan 27 18:01:49 2015
# Frame Rate: 120.000 fps
#------------------------------------------------------
:FULLY-SPECIFIED
:DEGREES
535
root -1.305376 31.971293 -5.843612 6.893903 24.510584 5.251443
Spine -8.343322 -2.756044 -2.270506
Head 11.328790 -9.104848 -1.963048
LeftShoulder -11.209744 14.446631 6.500167
LeftArm 22.358272 40.063787 -74.387074
LeftForeArm -1.318771 -0.000000 15.763238
LeftHand -11.128637 -0.000000 -6.085927
LeftHandThumb1 -26.253704 0.000000 33.147579
RightShoulder -20.096435 52.127679 -63.693373
RightArm 92.538819 43.768488 129.256799
RightForeArm 48.237479 -0.000000 150.708237
RightHand 7.613843 -0.000000 2.644428
RightHandThumb1 -24.326973 -0.000000 -32.862282
LeftUpLeg -2.040623 -11.189268 -0.870300
LeftLeg 0.140517 -0.000000 -0.000000
LeftFoot -12.376681 10.657919 -23.483213
LeftToeBase 8.305104 -0.000000 -0.000000
RightUpLeg 5.620887 -13.694948 -3.832287
RightLeg -4.110463 -0.000000 0.000000
RightFoot -17.319367 -20.493216 12.357693
RightToeBase 5.162011 -0.000000 -0.000000
536
root -1.306004 31.972271 -5.844717 6.906190 24.513546 5.256058
Spine -8.344328 -2.777123 -2.284485
Head 11.302876 -9.135213 -1.940497
LeftShoulder -11.208223 14.444002 6.502965
LeftArm 22.355719 40.066555 -74.384724
LeftForeArm -1.316883 -0.000000 15.749540
LeftHand -11.169692 -0.000000 -6.117903
LeftHandThumb1 -26.253704 0.000000 33.147579
RightShoulder -20.114144 52.129384 -63.715994
RightArm 92.533231 43.767936 129.272700
RightForeArm 48.247835 0.000000 150.692540
RightHand 7.570756 -0.000000 2.643731
RightHandThumb1 -24.326973 -0.000000 -32.862282
LeftUpLeg -2.076459 -11.071554 -0.886512
LeftLeg 0.189075 -0.000000 -0.000000
LeftFoot -12.351287 10.601523 -23.407834
LeftToeBase 8.320920 -0.000000 -0.000000
RightUpLeg 5.610212 -13.690153 -3.832479
RightLeg -4.112350 -0.000000 0.000000
RightFoot -17.314924 -20.515052 12.354470
RightToeBase 5.129850 -0.000000 -0.000000
537
root -1.305185 31.972053 -5.846022 6.911656 24.509565 5.252150
Spine -8.339911 -2.781298 -2.292932
Head 11.316080 -9.101661 -1.928903
LeftShoulder -11.215320 14.444311 6.511498
LeftArm 22.368556 40.072587 -74.384973
LeftForeArm -1.319677 -0.000000 15.728149
LeftHand -11.169124 0.000000 -6.154144
LeftHandThumb1 -26.253704 0.000000 33.147579
RightShoulder -20.127803 52.124213 -63.741251
RightArm 92.548119 43.791520 129.298289
RightForeArm 48.250017 -0.000000 150.671653
RightHand 7.550473 -0.000000 2.613120
RightHandThumb1 -24.326973 -0.000000 -32.862282
LeftUpLeg -2.058395 -11.173830 -0.874356
LeftLeg 0.127642 -0.000000 -0.000000
LeftFoot -12.361820 10.672804 -23.474694
LeftToeBase 8.346176 -0.000000 -0.000000
RightUpLeg 5.600384 -13.707124 -3.829164
RightLeg -4.113612 -0.000000 0.000000
RightFoot -17.301032 -20.505143 12.326690
RightToeBase 5.139305 -0.000000 -0.000000
538
root -1.305068 31.971846 -5.847354 6.916813 24.510240 5.249307
Spine -8.338090 -2.799053 -2.294976
Head 11.336480 -9.090832 -1.936524
LeftShoulder -11.231756 14.421635 6.511928
LeftArm 22.372699 40.126719 -74.368914
LeftForeArm -1.344809 -0.000000 15.699386
LeftHand -11.155210 -0.000000 -6.149647
LeftHandThumb1 -26.253704 0.000000 33.147579
RightShoulder -20.142712 52.135400 -63.772131
RightArm 92.546697 43.784323 129.322658
RightForeArm 48.227659 -0.000000 150.652979
RightHand 7.511515 -0.000000 2.602374
RightHandThumb1 -24.326973 -0.000000 -32.862282
LeftUpLeg -2.065276 -11.178654 -0.869030
LeftLeg 0.128054 -0.000000 -0.000000
LeftFoot -12.367883 10.660899 -23.492136
LeftToeBase 8.354651 -0.000000 -0.000000
RightUpLeg 5.590364 -13.719117 -3.826149
RightLeg -4.111131 -0.000000 0.000000
RightFoot -17.306173 -20.491989 12.335386
RightToeBase 5.145434 -0.000000 -0.000000
539
root -1.305745 31.972915 -5.847592 6.931151 24.516310 5.256338
Spine -8.342354 -2.808132 -2.321773
Head 11.271532 -9.212135 -1.800540
LeftShoulder -11.242200 14.422999 6.512831
LeftArm 22.401188 40.169222 -74.335252
LeftForeArm -1.262287 -0.000000 15.656489
LeftHand -11.045453 -0.000000 -6.041197
LeftHandThumb1 -26.253704 0.000000 33.147579
RightShoulder -20.166532 52.141858 -63.794478
RightArm 92.524954 43.799808 129.322061
RightForeArm 48.194427 -0.000000 150.636000
RightHand 7.506551 -0.000000 2.577548
RightHandThumb1 -24.326973 -0.000000 -32.862282
LeftUpLeg -2.101102 -11.084702 -0.884365
LeftLeg 0.175361 -0.000000 -0.000000
LeftFoot -12.339273 10.636869 -23.368769
LeftToeBase 8.328811 -0.000000 -0.000000
RightUpLeg 5.580930 -13.725175 -3.827213
RightLeg -4.114831 -0.000000 0.000000
RightFoot -17.319341 -20.494085 12.369143
RightToeBase 5.193837 -0.000000 -0.000000
540
root -1.305539 31.971457 -5.848649 6.932632 24.516540 5.238673
Spine -8.347630 -2.804839 -2.308594
Head 11.358652 -9.125182 -1.914235
LeftShoulder -11.245472 14.427523 6.512063
LeftArm 22.419452 40.180467 -74.323985
LeftForeArm -1.251514 -0.000000 15.646759
LeftHand -11.036021 -0.000000 -6.019037
LeftHandThumb1 -26.253704 0.000000 33.147579
RightShoulder -20.145076 52.130470 -63.797045
RightArm 92.560655 43.806035 129.351630
RightForeArm 48.158554 0.000000 150.592998
RightHand 7.473597 -0.000000 2.587336
RightHandThumb1 -24.326973 -0.000000 -32.862282
LeftUpLeg -2.076330 -11.175647 -0.859090
LeftLeg 0.097408 -0.000000 -0.000000
LeftFoot -12.357031 10.693050 -23.439073
LeftToeBase 8.360646 -0.000000 -0.000000
RightUpLeg 5.573939 -13.722932 -3.809637
RightLeg -4.123965 -0.000000 0.000000
RightFoot -17.300743 -20.493655 12.342526
RightToeBase 5.112981 -0.000000 -0.000000
